HIERARCHY
ROOT Hips
{
	OFFSET 0.000000 0.000000 0.000000
	CHANNELS 6 Xposition Yposition Zposition Zrotation Yrotation Xrotation 
	JOINT LHipJoint
	{
		OFFSET 0.000000 0.000000 0.000000
		CHANNELS 3 Zrotation Yrotation Xrotation
		JOINT LeftUpLeg
		{
			OFFSET 1.363060 -1.794630 0.839290
			CHANNELS 3 Zrotation Yrotation Xrotation
			JOINT LeftLeg
			{
				OFFSET 2.448110 -6.726130 0.000000
				CHANNELS 3 Zrotation Yrotation Xrotation
				JOINT LeftFoot
				{
					OFFSET 2.562200 -7.039590 0.000000
					CHANNELS 3 Zrotation Yrotation Xrotation
					JOINT LeftToeBase
					{
						OFFSET 0.157640 -0.433110 2.322550
						CHANNELS 3 Zrotation Yrotation Xrotation
						End Site
						{
							OFFSET 0.000000 0.000000 0.000000
						}
					}
				}
			}
		}
	}
	JOINT RHipJoint
	{
		OFFSET 0.000000 0.000000 0.000000
		CHANNELS 3 Zrotation Yrotation Xrotation
		JOINT RightUpLeg
		{
			OFFSET -1.305520 -1.794630 0.839290
			CHANNELS 3 Zrotation Yrotation Xrotation
			JOINT RightLeg
			{
				OFFSET -2.542530 -6.985550 0.000000
				CHANNELS 3 Zrotation Yrotation Xrotation
				JOINT RightFoot
				{
					OFFSET -2.568260 -7.056230 0.000000
					CHANNELS 3 Zrotation Yrotation Xrotation
					JOINT RightToeBase
					{
						OFFSET -0.164730 -0.452590 2.363150
						CHANNELS 3 Zrotation Yrotation Xrotation
						End Site
						{
							OFFSET 0.000000 0.000000 0.000000
						}
					}
				}
			}
		}
	}
	JOINT LowerBack
	{
		OFFSET 0.000000 0.000000 0.000000
		CHANNELS 3 Zrotation Yrotation Xrotation
		JOINT Spine
		{
			OFFSET 0.028270 2.035590 -0.193380
			CHANNELS 3 Zrotation Yrotation Xrotation
			JOINT Spine1
			{
				OFFSET 0.056720 2.048850 -0.042750
				CHANNELS 3 Zrotation Yrotation Xrotation
				JOINT Neck
				{
					OFFSET 0.000000 0.000000 0.000000
					CHANNELS 3 Zrotation Yrotation Xrotation
					JOINT Neck1
					{
						OFFSET -0.054170 1.746240 0.172020
						CHANNELS 3 Zrotation Yrotation Xrotation
						JOINT Head
						{
							OFFSET 0.104070 1.761360 -0.123970
							CHANNELS 3 Zrotation Yrotation Xrotation
							End Site
							{
								OFFSET 0.000000 0.000000 0.000000
							}
						}
					}
				}
				JOINT LeftShoulder
				{
					OFFSET 0.000000 0.000000 0.000000
					CHANNELS 3 Zrotation Yrotation Xrotation
					JOINT LeftArm
					{
						OFFSET 3.362410 1.200890 -0.311210
						CHANNELS 3 Zrotation Yrotation Xrotation
						JOINT LeftForeArm
						{
							OFFSET 4.983000 -0.000000 -0.000000
							CHANNELS 3 Zrotation Yrotation Xrotation
							JOINT LeftHand
							{
								OFFSET 3.483560 -0.000000 -0.000000
								CHANNELS 3 Zrotation Yrotation Xrotation
								JOINT LeftFingerBase
								{
									OFFSET 0.000000 0.000000 0.000000
									CHANNELS 3 Zrotation Yrotation Xrotation
									JOINT LeftHandIndex1
									{
										OFFSET 0.715260 -0.000000 -0.000000
										CHANNELS 3 Zrotation Yrotation Xrotation
										End Site
										{
											OFFSET 0.000000 0.000000 0.000000
										}
									}
								}
								JOINT LThumb
								{
									OFFSET 0.000000 0.000000 0.000000
									CHANNELS 3 Zrotation Yrotation Xrotation
									End Site
									{
										OFFSET 0.000000 0.000000 0.000000
									}
								}
							}
						}
					}
				}
				JOINT RightShoulder
				{
					OFFSET 0.000000 0.000000 0.000000
					CHANNELS 3 Zrotation Yrotation Xrotation
					JOINT RightArm
					{
						OFFSET -3.136600 1.374050 -0.404650
						CHANNELS 3 Zrotation Yrotation Xrotation
						JOINT RightForeArm
						{
							OFFSET -5.241900 -0.000000 -0.000000
							CHANNELS 3 Zrotation Yrotation Xrotation
							JOINT RightHand
							{
								OFFSET -3.444170 -0.000000 -0.000000
								CHANNELS 3 Zrotation Yrotation Xrotation
								JOINT RightFingerBase
								{
									OFFSET 0.000000 0.000000 0.000000
									CHANNELS 3 Zrotation Yrotation Xrotation
									JOINT RightHandIndex1
									{
										OFFSET -0.622530 -0.000000 -0.000000
										CHANNELS 3 Zrotation Yrotation Xrotation
										End Site
										{
											OFFSET 0.000000 0.000000 0.000000
										}
									}
								}
								JOINT RThumb
								{
									OFFSET 0.000000 0.000000 0.000000
									CHANNELS 3 Zrotation Yrotation Xrotation
									End Site
									{
										OFFSET 0.000000 0.000000 0.000000
									}
								}
							}
						}
					}
				}
			}
		}
	}
}
MOTION
Frames: 10
Frame Time: 0.008333
-22.636197 17.552070 -1.300374 179.007115 34.225390 -149.494930 4.050726 -3.893243 -3.510041 -16.151578 -6.442933 -31.097698 0.224536 9.111655 20.994114 -3.915060 25.340662 -26.089408 1.088700 -6.631200 -18.627200 -8.218266 0.989599 -3.216771 42.143362 -35.206195 -47.637944 -1.532095 -1.758541 1.568220 0.611286 9.387480 8.319309 -2.154700 -9.181100 26.363400 -0.762403 3.201367 -39.631887 -0.402327 3.377247 -2.080791 1.091776 2.026776 16.749264 6.843073 15.656292 -13.109500 -3.139430 20.862327 9.681687 -2.845400 9.737800 11.655900 -7.364054 -2.323721 -0.082155 -76.909632 -4.194598 22.847719 4.933855 -17.987908 -1.383178 -0.456339 0.143402 5.153820 25.882668 -10.670437 -5.273700 -7.125000 0.000000 0.000000 -0.510600 18.028800 0.327500 11.915965 1.470368 -0.757637 67.109555 -7.306243 27.064778 -28.562956 41.033301 -11.871669 0.024095 1.106502 -23.366471 32.175183 -22.572073 -14.055000 7.125000 0.000000 0.000000 54.433900 -46.344800 -2.600700 
-22.600631 17.568494 -1.273699 179.811440 33.922986 -149.228373 4.045371 -3.935367 -3.475310 -14.518927 -8.403405 -29.945760 0.173178 9.032348 20.727074 -3.948554 26.343892 -28.254982 0.836300 -5.833600 -16.302500 -8.216369 1.017188 -3.238067 42.878243 -35.230101 -47.251814 -1.619108 -1.810043 1.469338 1.547902 15.374329 7.624593 -0.143500 -2.441200 6.726600 0.077255 3.390712 -39.288871 -0.293711 3.119965 -2.126760 0.868289 1.961908 16.560236 6.913562 15.632353 -12.985546 -3.248003 20.840052 9.696634 -2.912700 9.732100 11.662900 -7.315285 -2.343726 -0.078867 -77.311453 -4.091736 23.691645 5.107294 -18.238075 -1.419273 -0.449995 0.143189 4.197104 26.174669 -11.014757 -5.511100 -7.125000 0.000000 0.000000 -0.334300 17.609300 0.217500 11.922336 1.472330 -0.780050 66.988580 -7.720366 28.349756 -28.018435 40.543313 -11.323696 0.164360 1.087058 -20.496572 26.467332 -21.562580 -10.652900 7.125000 0.000000 0.000000 49.740100 -46.434100 -2.354000 
-22.558474 17.572050 -1.244828 -179.250161 33.516190 -149.122176 4.099012 -4.010233 -3.430683 -13.145378 -9.343749 -29.155503 0.213342 9.022572 20.938462 -3.859440 26.592563 -29.591351 0.724500 -5.438700 -15.164100 -8.393605 1.306506 -3.528441 42.710044 -37.357100 -44.990957 -1.505360 -1.161081 -0.441888 1.397159 15.009357 8.534955 -0.144300 -2.447800 6.745100 1.060838 3.622243 -38.801543 -0.215236 2.895876 -2.128816 0.516870 1.870214 16.455915 7.206813 15.598971 -12.750573 -3.414811 20.714696 9.581018 -3.062700 9.693200 11.582600 -7.280224 -2.397712 -0.052590 -77.471754 -3.984523 24.776491 5.257855 -18.454319 -1.446095 -0.447396 0.148272 3.031039 26.509716 -11.798177 -5.983200 -7.125000 0.000000 0.000000 -0.159900 16.689700 0.107200 11.925221 1.431002 -0.809351 67.126820 -8.228977 29.495377 -27.648081 40.208365 -10.918750 0.350580 1.017165 -17.570211 20.755588 -21.738080 -8.068800 7.125000 0.000000 0.000000 45.518100 -47.343800 -3.304600 
-22.507949 17.570586 -1.208634 -178.172658 33.149277 -148.952556 4.104002 -4.006410 -3.448756 -11.902574 -9.272326 -28.637533 0.266522 9.004451 21.159769 -3.713961 26.251875 -30.038999 0.697700 -5.339500 -14.879400 -8.484542 1.298128 -3.529540 43.597441 -37.307735 -44.271908 -1.474571 -1.238812 -0.478529 1.350062 15.046988 8.537420 -0.147000 -2.471000 6.809300 2.112195 3.876212 -38.307070 -0.088956 2.604836 -2.119106 0.219424 1.771915 16.390465 7.441508 15.549418 -12.660804 -3.570116 20.611104 9.577485 -3.187900 9.653400 11.596400 -7.239488 -2.422501 -0.036803 -77.646609 -3.895517 25.780940 5.412638 -18.671900 -1.474538 -0.435587 0.151514 2.552281 26.492513 -12.386991 -6.268300 -7.125000 0.000000 0.000000 -0.225100 16.032000 0.154200 11.940043 1.417533 -0.829819 67.165770 -8.699869 30.715026 -27.225639 39.835001 -10.511983 0.547715 0.892768 -14.970609 14.498070 -22.298212 -5.487700 7.125000 0.000000 0.000000 40.729600 -48.596500 -4.277400 
-22.442569 17.577176 -1.174218 -177.118873 32.516418 -148.604461 4.103596 -3.986908 -3.499764 -10.736479 -8.663059 -28.672812 0.364715 9.043887 21.586101 -3.712401 25.821615 -29.247483 0.660000 -5.196000 -14.468300 -8.560438 1.268877 -3.504424 44.828691 -37.319263 -43.898152 -1.438007 -1.319276 -0.511116 1.320243 15.159795 8.364535 -0.123700 -2.267200 6.244800 3.081042 3.949778 -38.127627 0.123937 2.078010 -2.114308 0.146127 1.569358 16.469666 7.130417 15.487774 -12.880200 -3.275029 20.556422 9.720560 -2.997200 9.618000 11.618600 -7.195961 -2.405080 -0.051149 -77.996242 -3.828844 26.464108 5.644830 -18.998751 -1.528254 -0.407646 0.143877 2.785530 25.748766 -12.444873 -6.087100 -7.125000 0.000000 0.000000 -0.761300 16.064800 0.520900 11.975533 1.422932 -0.850009 66.814922 -9.089660 33.898837 -26.676624 39.384927 -10.030719 0.890756 0.581137 -10.380978 2.878538 -24.701576 -0.808800 7.125000 0.000000 0.000000 31.830200 -52.144300 -6.107800 
-22.378550 17.583348 -1.129237 -175.943853 31.821027 -148.303229 4.100183 -3.967999 -3.534280 -9.231891 -8.606505 -28.440072 0.462772 9.100605 22.045877 -3.703198 25.702601 -29.168985 0.534700 -4.685600 -13.014000 -8.635767 1.242828 -3.479356 46.181245 -37.339086 -43.465125 -1.396505 -1.405152 -0.536691 1.288918 15.287440 8.203667 -0.072200 -1.733300 4.769300 4.238776 4.109197 -37.656860 0.308960 1.623114 -2.142243 -0.028858 1.409035 16.371995 6.485926 15.443753 -13.067074 -2.478013 20.439540 9.697592 -2.528500 9.568600 11.404300 -7.188848 -2.383149 -0.088061 -78.241133 -3.717033 27.340483 5.937630 -19.395559 -1.596090 -0.382725 0.134874 2.542760 24.959101 -12.575863 -5.929400 -7.125000 0.000000 0.000000 -1.332900 16.018800 0.913500 11.965657 1.442242 -0.845881 66.568404 -8.520487 33.262314 -25.356465 38.287620 -9.353573 0.915754 0.579155 -10.754192 2.037266 -25.338373 -0.450000 7.125000 0.000000 0.000000 31.453100 -52.821300 -6.575400 
-22.314321 17.586904 -1.078711 -174.627403 31.073024 -148.226534 4.091271 -3.948034 -3.559057 -7.596516 -8.596357 -27.838229 0.562721 9.124572 22.487915 -3.657406 25.804576 -29.833990 0.557600 -4.783300 -13.291400 -8.715873 1.240417 -3.482962 47.490994 -37.585487 -42.719681 -1.338913 -1.495179 -0.555427 1.229496 15.295473 8.214394 -0.055700 -1.523200 4.189700 5.594601 4.316423 -36.845179 0.483700 1.187052 -2.156223 -0.399681 1.263399 16.158109 6.595033 15.400043 -13.027088 -2.390202 20.315965 9.702216 -2.516800 9.524800 11.380500 -7.154171 -2.406707 -0.090622 -78.343837 -3.589882 28.353158 6.230851 -19.790391 -1.665077 -0.372140 0.129979 1.836989 24.782521 -12.700296 -5.936300 -7.125000 0.000000 0.000000 -1.471300 15.902900 1.012200 11.973330 1.439459 -0.842147 66.532053 -8.283377 32.586966 -24.376482 37.460222 -8.886156 0.962671 0.552305 -11.084870 0.406463 -26.274325 0.286100 7.125000 0.000000 0.000000 30.512800 -53.875800 -7.173300 
-22.245489 17.585963 -1.024106 -173.358617 30.318052 -148.129953 4.075534 -3.911554 -3.598127 -6.116842 -8.099501 -27.527954 0.682503 9.136889 22.949542 -3.680649 25.787146 -29.756775 0.683200 -5.284700 -14.722400 -8.778271 1.220967 -3.469702 48.822605 -37.804904 -42.054962 -1.284087 -1.583177 -0.563648 1.182379 15.347041 8.179365 -0.057200 -1.542800 4.243700 6.909551 4.469780 -36.125845 0.688025 0.716242 -2.183021 -0.656858 1.108085 15.902924 6.612807 15.311639 -12.811502 -2.412961 20.170575 9.653569 -2.556900 9.469800 11.289900 -7.111134 -2.432601 -0.094414 -78.569971 -3.381623 29.373233 6.490219 -20.143762 -1.725711 -0.365540 0.130392 1.195739 25.056547 -12.980033 -6.138000 -7.125000 0.000000 0.000000 -1.307300 15.561100 0.908900 11.982534 1.427372 -0.839866 66.379939 -8.418981 32.081800 -24.632626 37.850390 -9.351289 1.072351 0.624041 -11.679221 -0.467789 -33.019924 0.899900 7.125000 0.000000 0.000000 35.272500 -59.763300 -13.734800 
-22.171845 17.582197 -0.965317 -172.113781 29.591259 -147.939725 4.060108 -3.870531 -3.633447 -4.522385 -7.890020 -27.243122 0.792795 9.139258 23.350064 -3.641137 25.574114 -29.710845 0.717800 -5.414000 -15.093100 -8.821413 1.184577 -3.439266 50.226023 -37.891018 -41.526089 -1.236866 -1.669765 -0.563331 1.169046 15.558784 7.997529 -0.041800 -1.319900 3.629500 8.238665 4.587437 -35.475247 0.877088 0.235886 -2.215478 -0.993089 0.951103 15.684657 6.643818 15.224211 -12.949286 -2.270838 20.034237 9.821941 -2.499200 9.411200 11.383400 -7.073187 -2.452870 -0.106604 -78.662552 -3.240457 30.257777 6.787024 -20.534054 -1.799703 -0.352793 0.128595 0.510459 24.822403 -13.269014 -6.202500 -7.125000 0.000000 0.000000 -1.498000 15.270400 1.050900 11.996487 1.444325 -0.849581 66.335637 -8.457326 31.587887 -23.766181 37.080878 -8.884780 1.105876 0.561955 -12.988282 -4.099060 -32.356035 2.858300 7.125000 0.000000 0.000000 30.876700 -59.945400 -11.939800 
-22.096842 17.574142 -0.906737 -170.921031 28.956563 -147.695551 4.047178 -3.814109 -3.672932 -3.048296 -7.506268 -27.103143 0.916088 9.144228 23.749303 -3.726919 25.354923 -28.758866 0.604300 -4.976100 -13.840500 -8.848529 1.130256 -3.392152 51.575210 -37.837770 -41.073431 -1.198273 -1.752238 -0.553724 1.153549 15.732995 7.868451 -0.031400 -1.144300 3.146100 9.599540 4.739922 -34.936753 1.038391 -0.172790 -2.252888 -1.394924 0.830915 15.459013 6.767832 15.104618 -13.038269 -2.128477 19.848270 10.055813 -2.466900 9.341600 11.507500 -7.044327 -2.476922 -0.121784 -78.654752 -3.006126 31.134711 7.170296 -21.039803 -1.900476 -0.338179 0.117805 -0.285052 24.187457 -13.256273 -6.014300 -7.125000 0.000000 0.000000 -1.943300 15.364900 1.359800 12.006115 1.459774 -0.862329 66.334307 -8.585870 30.651134 -22.943698 36.347368 -8.481034 1.119640 0.528240 -13.179553 -5.586090 -31.959749 3.624300 7.125000 0.000000 0.000000 28.953700 -59.903500 -11.086900 
